<svg version="1.1" xmlns="http://www.w3.org/2000/svg" viewBox="0 0 2048 2048" width="100%" height="100%">
  <path transform="translate(0,0)" fill="rgb(31,104,232)" d="M 1155.84 445.648 C 1167 445.415 1178.17 445.289 1189.34 445.269 L 1361.04 617.733 L 1414.38 671.241 C 1422.26 679.195 1442.51 697.517 1445.36 706.711 C 1442.07 706.868 1439.09 706.516 1436.63 708.424 C 1435.1 711.688 1435.41 714.835 1435.33 718.502 C 1435.34 715.251 1435.81 710.392 1434.24 707.881 C 1414.67 706.322 1374.24 707.742 1352.5 707.705 L 1177 707.783 L 1176.7 455.019 C 1177.01 450.585 1177.69 449.511 1174.75 446.44 C 1170.26 444.865 1161.59 445.732 1155.84 445.648 z" data-index="2"/>
  <path transform="translate(0,0)" fill="rgb(41,44,51)" d="M 1445.36 706.711 C 1443.97 724.257 1444.92 757.116 1444.92 776.043 L 1444.97 909.179 L 1444.97 1323.36 L 1445.05 1446.41 C 1445.06 1461 1445.91 1497.2 1444.06 1510.55 C 1441.85 1526.79 1434.74 1541.97 1423.67 1554.06 C 1408.04 1571.07 1386.32 1580.93 1363.38 1581.01 C 1314.49 1581.17 1265.34 1580.97 1216.46 1580.97 L 918.054 1580.98 L 755.54 1580.95 C 728.591 1580.96 698.543 1582 672.075 1579.68 C 658.228 1578.46 638.129 1567.81 628.588 1557.95 C 611.061 1539.85 602.996 1520.52 602.995 1495.55 C 602.993 1422.89 603.031 1350.32 603.029 1277.73 L 603.031 833.215 L 602.988 623.844 L 602.905 561.028 C 602.891 548.016 602.418 531.345 604.011 518.814 C 606.512 500.494 614.904 483.484 627.919 470.35 C 657.099 440.787 692.426 445.483 730.494 445.531 L 818.595 445.56 L 1155.84 445.648 C 1161.59 445.732 1170.26 444.865 1174.75 446.44 C 1177.69 449.511 1177.01 450.585 1176.7 455.019 L 827.346 455.021 L 730.006 454.956 C 712.993 454.951 686.017 453.626 669.975 457.244 C 641.976 463.559 616.337 492.02 613.544 520.643 C 612.182 533.122 612.614 547.622 612.597 560.203 L 612.593 625.852 L 612.578 835.332 L 612.664 1269.96 C 612.693 1344.28 612.402 1418.55 612.797 1492.93 C 612.928 1517.68 617.645 1532.24 635.245 1550.61 C 643.677 1559.41 661.906 1569.5 674.082 1570.48 C 696.647 1572.29 722.921 1571.22 745.842 1571.25 L 900.708 1571.42 L 1199.01 1571.42 C 1253.89 1571.44 1308.9 1571.68 1363.79 1571.25 C 1384.38 1571.09 1401.64 1562.88 1415.81 1548.19 C 1423.71 1540.01 1433.74 1522.01 1434.49 1510.73 C 1436 1487.78 1435.45 1461.38 1435.44 1438.17 L 1435.38 1287.86 L 1435.35 903.657 C 1435.36 842.802 1434.38 779.171 1435.33 718.502 C 1435.41 714.835 1435.1 711.688 1436.63 708.424 C 1439.09 706.516 1442.07 706.868 1445.36 706.711 z" data-index="3"/>
  <path transform="translate(0,0)" fill="rgb(246,202,13)" d="M 726.965 940.669 C 787.197 942.178 853.335 940.685 914 940.7 L 1320.89 940.957 C 1321.7 995.986 1320.97 1052.83 1320.9 1107.95 C 1258.69 1106.72 1192.06 1107.96 1129.49 1107.96 L 727.09 1107.87 L 726.965 940.669 z" data-index="4"/>
  <path transform="translate(0,0)" fill="rgb(186,186,189)" d="M 765.759 821.241 L 1147.37 821.279 L 1239.39 821.219 C 1245.78 821.195 1275.96 820.623 1280.75 821.571 C 1282.71 824.449 1281.94 826.757 1281.88 830.838 C 1240.85 831.547 1197.46 830.886 1156.25 830.885 L 909.708 830.884 L 809.682 830.962 C 803.088 830.972 771.977 831.414 767.14 830.509 C 765.006 827.541 765.774 825.524 765.759 821.241 z" data-index="5"/>
  <path transform="translate(0,0)" fill="rgb(186,186,189)" d="M 765.562 1217.44 C 807.513 1216.73 851.109 1217.3 893.169 1217.28 L 1148.58 1217.26 L 1242.24 1217.19 C 1248.23 1217.18 1277.1 1216.77 1280.83 1217.74 C 1282.84 1221.25 1282.02 1222.01 1281.94 1226.82 C 1241.49 1227.47 1199.52 1226.83 1158.94 1226.82 L 916.407 1226.77 L 813.859 1226.83 C 805.609 1226.86 771.95 1227.41 766.754 1226.51 C 764.75 1223.29 765.556 1222.02 765.562 1217.44 z" data-index="6"/>
  <path transform="translate(0,0)" fill="rgb(186,186,189)" d="M 765.524 1347.96 L 1036.89 1347.99 C 1050.47 1348.01 1116.37 1346.09 1126.3 1348.53 C 1128.29 1351.52 1127.43 1352.76 1127.31 1357.26 C 1101.79 1357.95 1074.3 1357.2 1048.55 1357.18 L 891.79 1357.14 C 879.25 1357.14 772.279 1358.49 766.285 1356.44 C 764.625 1353.45 765.385 1352.01 765.524 1347.96 z" data-index="7"/>
  <path transform="translate(0,0)" fill="rgb(186,186,189)" d="M 765.887 691.028 L 988.607 691.049 C 1001.27 691.042 1060.3 689.342 1069.87 691.632 C 1071.7 694.387 1070.99 696.211 1071.06 700.198 L 842.613 700.231 C 829.46 700.229 775.938 701.978 767.152 699.715 C 765.163 696.459 765.925 695.571 765.887 691.028 z" data-index="8"/>
</svg>
